<?xml version="1.0" encoding="UTF-8"?><svg id="Layer_1" xmlns="http://www.w3.org/2000/svg" viewBox="0 0 770.83 266"><defs><style>.cls-1{fill:#ff0;}</style></defs><circle class="cls-1" cx="133" cy="133" r="133"/><path d="M92.71,60.47h18.77l21.55,69.18h-16.6l-8.93-35.02c-1.75-6.91-3.86-15.01-5.52-22.31h-.42c-1.69,7.3-3.62,15.41-5.37,22.31l-8.99,35.02h-16.02l21.55-69.18ZM85.42,101h33.1v12.2h-33.1v-12.2Z"/><path d="M163.47,89.23h-21.2v-12.24h36.83v52.66h-15.63v-40.42ZM160.2,59.21c0-5.72,4.35-9.7,10.38-9.7s10.38,3.99,10.38,9.7-4.35,9.55-10.38,9.55-10.38-3.8-10.38-9.55Z"/><path d="M75.6,208.94l8.98-10.75c5.23,4.28,11.68,7.22,18.39,7.22s9.71-2.57,9.71-5.96c0-4.98-4.11-6.18-10.66-8.93l-9.01-3.85c-7.67-2.91-14.66-8.79-14.66-18.86,0-11.46,10.32-20.62,25.35-20.62,8.32,0,16.73,3.12,22.98,9.06l-7.89,9.87c-4.87-3.5-9.18-5.4-15.94-5.4-5.16,0-8.66,2.14-8.66,6.18s4.64,5.68,11.27,8.17l8.46,3.59c9.06,3.4,14.78,9.05,14.78,18.81,0,11.5-9.65,21.46-26.77,21.46-9.35,0-19-3.42-26.34-9.99Z"/><path d="M152.44,195.83v-18.59h-13.27v-11.64l13.97-.61,2.01-16.1h12.92v16.1h22.2v12.24h-22.2v18.39c0,8.01,3.38,11.03,11.07,11.03,3.93,0,7.3-.8,10.4-1.88l2.83,11.3c-4.67,1.39-10.2,2.85-17.21,2.85-16.76,0-22.71-9.29-22.71-23.1Z"/><path d="M204.19,197.51v-32.52h15.63v30.51c0,6.98,1.86,10.12,7.68,10.12,3.88,0,6.62-1.38,10.21-6v-34.63h15.63v52.66h-12.76l-1.13-7.57h-.42c-4.67,5.36-10.18,8.84-17.76,8.84-11.98,0-17.07-8.14-17.07-21.42Z"/><path d="M266.31,191.35c0-17.23,11.07-27.63,22.51-27.63,5.77,0,9.71,2.06,13.28,5.66h.37l-.73-8.15v-17.94h15.63v74.36h-12.73l-1.13-5.42h-.39c-3.86,3.82-9.33,6.69-14.58,6.69-13.45,0-22.22-10.38-22.22-27.58ZM301.73,201.25v-21.25c-2.83-2.59-5.73-3.49-8.81-3.49-5.7,0-10.62,4.64-10.62,14.66s3.82,14.97,10.2,14.97c3.56,0,6.5-1.32,9.23-4.89Z"/><path d="M332.12,237.17l2.8-11.91c1.38.42,2.77.67,4.06.67,6.07,0,9.35-2.8,11.05-6.87l1.03-2.75-22.77-51.32h15.5l8.85,22.63c1.86,4.95,3.56,10.29,5.22,15.81h.42c1.42-5.27,3.21-10.68,4.83-15.81l7.7-22.63h14.77l-20.76,53.23c-5.12,13.18-11.39,20.01-24.7,20.01-3.05,0-5.75-.42-8.02-1.06Z"/><path d="M460.21,148.47h23.27c14.38,0,25.34,3.93,25.34,17.14,0,6.21-3.7,12.83-11.83,14.95v.42c9.88,1.82,15.06,7.04,15.06,16.28,0,14.08-11.54,20.38-26.6,20.38h-25.24v-69.18ZM482.76,176.24c7.6,0,10.77-3.21,10.77-8.43s-3.38-7.16-10.65-7.16h-7.04v15.59h6.92ZM484.18,205.47c8.52,0,12.59-3.08,12.59-9.39s-3.98-8.58-12.59-8.58h-8.34v17.97h8.34Z"/><path d="M522.64,197.51v-32.52h15.63v30.51c0,6.98,1.87,10.12,7.68,10.12,3.88,0,6.62-1.38,10.21-6v-34.63h15.63v52.66h-12.76l-1.13-7.57h-.42c-4.67,5.36-10.18,8.84-17.76,8.84-11.98,0-17.07-8.14-17.07-21.42Z"/><path d="M584.75,191.35c0-17.23,11.07-27.63,22.51-27.63,5.77,0,9.71,2.06,13.28,5.66h.37l-.73-8.15v-17.94h15.63v74.36h-12.73l-1.13-5.42h-.39c-3.86,3.82-9.33,6.69-14.58,6.69-13.45,0-22.22-10.38-22.22-27.58ZM620.18,201.25v-21.25c-2.83-2.59-5.73-3.49-8.81-3.49-5.7,0-10.62,4.64-10.62,14.66s3.82,14.97,10.2,14.97c3.56,0,6.5-1.32,9.23-4.89Z"/><path d="M648.44,191.35c0-17.23,11.07-27.63,22.51-27.63,5.77,0,9.71,2.06,13.28,5.66h.37l-.73-8.15v-17.94h15.63v74.36h-12.73l-1.13-5.42h-.39c-3.86,3.82-9.33,6.69-14.58,6.69-13.45,0-22.22-10.38-22.22-27.58ZM683.87,201.25v-21.25c-2.83-2.59-5.73-3.49-8.81-3.49-5.7,0-10.62,4.64-10.62,14.66s3.82,14.97,10.2,14.97c3.56,0,6.5-1.32,9.23-4.89Z"/><path d="M714.26,237.17l2.8-11.91c1.38.42,2.77.67,4.06.67,6.07,0,9.35-2.8,11.05-6.87l1.03-2.75-22.77-51.32h15.5l8.85,22.63c1.86,4.95,3.56,10.29,5.22,15.81h.42c1.42-5.27,3.21-10.68,4.83-15.81l7.7-22.63h14.77l-20.75,53.23c-5.12,13.18-11.39,20.01-24.7,20.01-3.05,0-5.75-.42-8.02-1.06Z"/></svg>